<svg width="250" height="250" viewBox="0 0 250 250" fill="none" xmlns="http://www.w3.org/2000/svg">
<circle cx="125" cy="125" r="125" fill="#F1F0EF"/>
<mask id="mask0_1172_2495" style="mask-type:luminance" maskUnits="userSpaceOnUse" x="63" y="30" width="124" height="122">
<path d="M63.9466 30H186.115V151.13H63.9466V30Z" fill="white"/>
</mask>
<g mask="url(#mask0_1172_2495)">
<path d="M176.791 150.864H73.3697C68.5636 150.864 64.6499 146.95 64.6499 142.144V38.7229C64.6499 33.9139 68.5636 30.003 73.3697 30.003H176.791C181.597 30.003 185.511 33.9139 185.511 38.7229V142.144C185.511 146.95 181.597 150.864 176.791 150.864ZM73.3697 34.8147C71.2152 34.8147 69.4616 36.5683 69.4616 38.7229V142.144C69.4616 144.299 71.2152 146.053 73.3697 146.053H176.791C178.946 146.053 180.699 144.299 180.699 142.144V38.7229C180.699 36.5683 178.946 34.8147 176.791 34.8147H73.3697Z" fill="#605954"/>
</g>
<path d="M90.5272 190.304V195.774C90.5272 195.819 90.4905 195.856 90.4453 195.856H77.2836C77.2356 195.856 77.1989 195.892 77.1989 195.937V201.983C77.1989 202.028 77.2356 202.068 77.2836 202.068H89.7874C89.8325 202.068 89.8693 202.105 89.8693 202.15V207.62C89.8693 207.665 89.8325 207.701 89.7874 207.701H77.2836C77.2356 207.701 77.1989 207.741 77.1989 207.786V218.889C77.1989 218.937 77.1622 218.974 77.117 218.974H70.8651C70.8199 218.974 70.7832 218.937 70.7832 218.889V190.304C70.7832 190.256 70.8199 190.219 70.8651 190.219H90.4453C90.4905 190.219 90.5272 190.256 90.5272 190.304Z" fill="#605954"/>
<path d="M121.092 199.764C121.092 204.327 119.299 207.292 115.721 208.653C115.67 208.673 115.65 208.732 115.681 208.777L122.809 218.841C122.848 218.898 122.809 218.974 122.741 218.974H115.046C115.018 218.974 114.992 218.96 114.978 218.937L108.65 209.836C108.636 209.814 108.611 209.799 108.582 209.799H104.268C104.223 209.799 104.183 209.836 104.183 209.884V218.889C104.183 218.937 104.146 218.974 104.101 218.974H97.8492C97.8041 218.974 97.7673 218.937 97.7673 218.889V190.304C97.7673 190.256 97.8041 190.219 97.8492 190.219H108.667C113.137 190.219 116.325 190.973 118.231 192.481C120.137 193.992 121.092 196.418 121.092 199.764ZM113.358 203.178C114.151 202.466 114.549 201.334 114.549 199.783C114.549 198.236 114.14 197.171 113.315 196.595C112.493 196.019 111.053 195.731 108.998 195.731H104.268C104.223 195.731 104.183 195.768 104.183 195.816V204.163C104.183 204.211 104.223 204.248 104.268 204.248H108.873C111.067 204.248 112.561 203.892 113.358 203.178Z" fill="#605954"/>
<path d="M150.214 190.304V195.856C150.214 195.901 150.177 195.937 150.132 195.937H135.982C135.937 195.937 135.9 195.974 135.9 196.022V201.777C135.9 201.825 135.937 201.862 135.982 201.862H148.692C148.737 201.862 148.774 201.899 148.774 201.944V207.25C148.774 207.295 148.737 207.331 148.692 207.331H135.982C135.937 207.331 135.9 207.368 135.9 207.416V213.213C135.9 213.259 135.937 213.298 135.982 213.298H150.584C150.629 213.298 150.665 213.335 150.665 213.38V218.889C150.665 218.937 150.629 218.974 150.584 218.974H129.566C129.518 218.974 129.481 218.937 129.481 218.889V190.304C129.481 190.256 129.518 190.219 129.566 190.219H150.132C150.177 190.219 150.214 190.256 150.214 190.304Z" fill="#605954"/>
<path d="M178.926 190.304V195.856C178.926 195.901 178.889 195.937 178.844 195.937H164.694C164.649 195.937 164.612 195.974 164.612 196.022V201.777C164.612 201.825 164.649 201.862 164.694 201.862H177.404C177.449 201.862 177.486 201.899 177.486 201.944V207.25C177.486 207.295 177.449 207.331 177.404 207.331H164.694C164.649 207.331 164.612 207.368 164.612 207.416V213.213C164.612 213.259 164.649 213.298 164.694 213.298H179.296C179.341 213.298 179.378 213.335 179.378 213.38V218.889C179.378 218.937 179.341 218.974 179.296 218.974H158.276C158.23 218.974 158.194 218.937 158.194 218.889V190.304C158.194 190.256 158.23 190.219 158.276 190.219H178.844C178.889 190.219 178.926 190.256 178.926 190.304Z" fill="#605954"/>
<mask id="mask1_1172_2495" style="mask-type:luminance" maskUnits="userSpaceOnUse" x="57" y="160" width="20" height="22">
<path d="M57.5 160.527H76.2359V181.491H57.5V160.527Z" fill="white"/>
</mask>
<g mask="url(#mask1_1172_2495)">
<path d="M67.8633 177.269C70.0179 177.269 71.7856 176.442 73.1664 174.787C73.1975 174.748 73.2539 174.745 73.2878 174.782L76.0213 177.549C76.0523 177.58 76.0523 177.634 76.0241 177.665C73.7707 180.133 71.122 181.367 68.0751 181.367C65.0056 181.367 62.4755 180.412 60.4876 178.503C58.5024 176.594 57.5085 174.186 57.5085 171.277C57.5085 168.369 58.5194 165.94 60.5469 163.995C62.5715 162.049 65.048 161.078 67.9763 161.078C71.2208 161.078 73.9429 162.283 76.1399 164.698C76.1681 164.729 76.1681 164.777 76.1399 164.811L73.4883 167.77C73.4544 167.807 73.3951 167.804 73.3641 167.767C71.9663 166.096 70.2381 165.26 68.1768 165.26C66.5022 165.26 65.0706 165.796 63.8818 166.872C62.6929 167.948 62.1 169.397 62.1 171.221C62.1 173.045 62.6619 174.51 63.7829 175.615C64.904 176.719 66.265 177.269 67.8633 177.269Z" fill="#605954"/>
</g>
<path d="M96.4317 168.064C96.4317 171.173 95.2118 173.195 92.7749 174.129C92.7241 174.149 92.7043 174.211 92.7382 174.254L97.581 181.067C97.6177 181.124 97.581 181.2 97.5132 181.2H92.4671C92.4389 181.2 92.4135 181.186 92.3993 181.163L87.9716 174.895C87.9547 174.875 87.9293 174.861 87.9039 174.861H84.9078C84.8626 174.861 84.8259 174.897 84.8259 174.943V181.115C84.8259 181.163 84.7892 181.2 84.7412 181.2H80.5027C80.4575 181.2 80.4208 181.163 80.4208 181.115V161.62C80.4208 161.575 80.4575 161.538 80.5027 161.538H87.9039C90.9705 161.538 93.1589 162.055 94.4692 163.086C95.7766 164.116 96.4317 165.777 96.4317 168.064ZM91.2868 170.371C91.8374 169.885 92.1113 169.114 92.1113 168.058C92.1113 167.005 91.8261 166.279 91.2557 165.887C90.6881 165.494 89.6913 165.299 88.2653 165.299H85.0151C84.9699 165.299 84.9332 165.336 84.9332 165.381V171.018C84.9332 171.063 84.9699 171.099 85.0151 171.099H88.1806C89.6998 171.099 90.7333 170.857 91.2868 170.371Z" fill="#605954"/>
<path d="M107.315 176.089C108.054 176.996 109.051 177.45 110.302 177.45C111.556 177.45 112.547 176.996 113.276 176.089C114.007 175.183 114.371 173.943 114.371 172.37V161.62C114.371 161.575 114.408 161.538 114.456 161.538H118.802C118.847 161.538 118.884 161.575 118.884 161.62V172.511C118.884 175.355 118.085 177.538 116.489 179.063C114.891 180.587 112.846 181.35 110.356 181.35C107.865 181.35 105.818 180.585 104.211 179.048C102.605 177.515 101.8 175.335 101.8 172.511V161.62C101.8 161.575 101.839 161.538 101.884 161.538H106.123C106.168 161.538 106.205 161.575 106.205 161.62V172.37C106.205 173.943 106.575 175.183 107.315 176.089Z" fill="#605954"/>
<path d="M138.653 161.62V165.322C138.653 165.37 138.616 165.407 138.571 165.407H128.852C128.807 165.407 128.77 165.443 128.77 165.489V169.405C128.77 169.45 128.807 169.49 128.852 169.49H137.603C137.648 169.49 137.687 169.527 137.687 169.572V173.166C137.687 173.212 137.648 173.248 137.603 173.248H128.852C128.807 173.248 128.77 173.285 128.77 173.333V177.142C128.77 177.188 128.807 177.224 128.852 177.224H138.893C138.938 177.224 138.975 177.261 138.975 177.306V181.115C138.975 181.163 138.938 181.2 138.893 181.2H124.339C124.294 181.2 124.257 181.163 124.257 181.115V161.62C124.257 161.575 124.294 161.538 124.339 161.538H138.571C138.616 161.538 138.653 161.575 138.653 161.62Z" fill="#605954"/>
<path d="M143.809 181.008V161.62C143.809 161.575 143.849 161.538 143.894 161.538H148.133C148.178 161.538 148.215 161.575 148.215 161.62V177.142C148.215 177.188 148.254 177.224 148.299 177.224H156.728C156.773 177.224 156.81 177.261 156.81 177.306V181.008C156.81 181.056 156.773 181.093 156.728 181.093H143.894C143.849 181.093 143.809 181.056 143.809 181.008Z" fill="#605954"/>
<path d="M167.555 165.381V181.008C167.555 181.056 167.518 181.093 167.473 181.093H163.231C163.186 181.093 163.149 181.056 163.149 181.008V165.381C163.149 165.336 163.113 165.299 163.068 165.299H157.539C157.493 165.299 157.454 165.263 157.454 165.215V161.62C157.454 161.575 157.493 161.538 157.539 161.538H173.165C173.211 161.538 173.25 161.575 173.25 161.62V165.215C173.25 165.26 173.211 165.299 173.165 165.299H167.636C167.591 165.299 167.555 165.336 167.555 165.381Z" fill="#605954"/>
<mask id="mask2_1172_2495" style="mask-type:luminance" maskUnits="userSpaceOnUse" x="174" y="161" width="19" height="21">
<path d="M174.549 161.25H192.5V181.491H174.549V161.25Z" fill="white"/>
</mask>
<g mask="url(#mask2_1172_2495)">
<path d="M185.737 181.2H181.499C181.451 181.2 181.414 181.163 181.414 181.115V173.457C181.414 173.443 181.411 173.429 181.403 173.417L174.654 161.662C174.62 161.605 174.662 161.538 174.724 161.538H179.304C179.335 161.538 179.361 161.555 179.378 161.58L183.546 168.727C183.577 168.784 183.656 168.784 183.69 168.727L187.858 161.58C187.872 161.552 187.9 161.538 187.928 161.538H192.509C192.573 161.538 192.613 161.605 192.582 161.662L185.83 173.417C185.825 173.429 185.819 173.443 185.819 173.457V181.115C185.819 181.163 185.782 181.2 185.737 181.2Z" fill="#605954"/>
</g>
<path d="M161.17 63.6708C156.731 58.828 150.841 56.2019 144.575 56.2668C138.472 56.3402 132.743 58.972 128.448 63.6764C127.152 65.094 126.022 66.664 125.079 68.3498C124.139 66.664 123.009 65.094 121.713 63.6764C117.418 58.972 111.689 56.3402 105.584 56.2668C105.505 56.2668 105.425 56.2668 105.346 56.2668C99.1736 56.2668 93.3735 58.8901 88.991 63.6708C84.5435 68.5221 82.1574 74.9264 82.2703 81.7035C82.2958 83.3611 82.4765 85.0159 82.8012 86.6282C83.1796 88.4919 83.7585 90.3105 84.5181 92.0273C84.5689 92.1459 84.6226 92.2617 84.6762 92.3775C84.7807 92.5977 84.888 92.8236 85.001 93.0552L85.08 93.2133C87.5791 98.2143 91.6115 103.238 97.0614 108.146C103.898 114.299 112.815 120.09 123.568 125.362C124.046 125.594 124.557 125.715 125.079 125.715C125.604 125.715 126.115 125.597 126.593 125.362C137.346 120.09 146.263 114.299 153.1 108.146C158.55 103.238 162.582 98.2143 165.081 93.2162C165.092 93.1964 165.101 93.1738 165.106 93.1653L165.16 93.0524C165.273 92.8236 165.38 92.5977 165.482 92.3803C165.538 92.2617 165.592 92.1459 165.637 92.0386C166.403 90.3133 166.979 88.4948 167.36 86.6254C167.685 85.0159 167.865 83.3611 167.891 81.7035C168.004 74.9264 165.617 68.5221 161.17 63.6708ZM159.693 88.9579C159.665 89.0172 159.64 89.0765 159.608 89.1386C159.524 89.3221 159.436 89.5057 159.346 89.6921L159.289 89.8078C159.244 89.8954 159.196 89.9886 159.148 90.0789L150.753 84.7307C149.895 84.1828 148.788 84.4935 148.282 85.4225C147.777 86.3543 148.065 87.5544 148.923 88.0994L157.183 93.3658C156.392 94.532 155.429 95.8112 154.255 97.1836L145.117 91.1068C144.27 90.542 143.157 90.8301 142.635 91.7478C142.112 92.6683 142.38 93.8741 143.228 94.4389L151.634 100.03C150.468 101.213 149.155 102.447 147.672 103.721L139.057 97.9065C138.21 97.3361 137.097 97.6185 136.572 98.5334C136.044 99.4511 136.304 100.657 137.148 101.227L144.58 106.239C143.188 107.321 141.683 108.425 140.042 109.546L131.955 104.252C131.102 103.692 129.992 103.989 129.476 104.915C128.962 105.839 129.236 107.039 130.088 107.598L136.555 111.833C133.214 113.934 129.414 116.083 125.09 118.246C101.918 106.646 93.7208 95.4611 90.8942 89.8107L90.8377 89.6921C90.7446 89.5057 90.657 89.3221 90.5695 89.1358C90.5412 89.0765 90.5158 89.0172 90.4848 88.9466C89.9398 87.7182 89.5303 86.4221 89.2592 85.0949C89.0277 83.9428 88.8978 82.7596 88.878 81.5737C88.799 76.7478 90.5045 72.1789 93.6841 68.7113C96.8637 65.2408 101.071 63.3573 105.521 63.4166C114.501 63.5268 121.789 71.5238 121.77 81.2461V81.4268L121.789 81.4692C121.789 82.3982 122.131 83.3075 122.733 83.9739C123.351 84.6544 124.209 85.0469 125.093 85.0469C125.974 85.0469 126.833 84.6544 127.448 83.9739C128.05 83.3103 128.391 82.4038 128.391 81.4692L128.411 81.4268V81.2433C128.391 71.5238 135.68 63.5268 144.659 63.4166C144.721 63.4166 144.784 63.4166 144.846 63.4166C149.231 63.4166 153.368 65.2973 156.497 68.7113C159.676 72.1789 161.382 76.7478 161.303 81.5737C161.283 82.7596 161.156 83.9428 160.922 85.0921C160.653 86.4221 160.238 87.7211 159.693 88.9579Z" fill="#605954"/>
<path d="M101.786 92.5897C100.775 92.5897 99.8061 93.5555 99.8513 94.685C99.8993 95.8201 100.701 96.7802 101.786 96.7802C102.796 96.7802 103.765 95.8173 103.72 94.685C103.672 93.5498 102.87 92.5897 101.786 92.5897Z" fill="#605954"/>
<path d="M99.8343 88.3681C97.1348 84.6689 96.4683 79.123 99.3599 75.3081C100.029 74.427 100.142 73.21 99.3599 72.3459C98.685 71.5976 97.2872 71.4733 96.6265 72.3459C92.275 78.081 92.9951 85.7081 97.1009 91.3331C97.7532 92.2254 99.1509 92.0588 99.8343 91.3331C100.653 90.4662 100.481 89.252 99.8343 88.3681Z" fill="#605954"/>
</svg>
