<svg width="100" height="100" viewBox="0 0 100 100" fill="none" xmlns="http://www.w3.org/2000/svg">
<circle cx="50" cy="50" r="50" fill="#F1F0EF"/>
<mask id="mask0_429_1086" style="mask-type:luminance" maskUnits="userSpaceOnUse" x="15" y="35" width="50" height="40">
<path d="M15 35.2419H64.1245V74.0178H15V35.2419Z" fill="white"/>
</mask>
<g mask="url(#mask0_429_1086)">
<path d="M55.9532 56.0592C51.5868 57.4445 45.764 58.2086 39.5555 58.2086C33.3478 58.2086 27.5243 57.4445 23.1579 56.0592C19.2482 54.8173 16.9139 53.1778 16.9139 51.6742C16.9139 50.8696 17.6155 49.9941 18.9054 49.1651C19.9557 50.4222 21.9084 51.5214 24.7011 52.4078C28.6826 53.6716 33.9582 54.3681 39.5555 54.3681C40.8413 54.3681 42.1288 54.3302 43.3833 54.2567C43.9109 54.2255 44.3136 53.773 44.2824 53.2453C44.252 52.7185 43.8003 52.3192 43.2719 52.3462C42.0536 52.4179 40.8041 52.4543 39.5555 52.4543C27.3867 52.4543 19.9143 49.2031 19.9143 46.873V45.9561C21.0355 46.8207 22.6395 47.5906 24.7011 48.2449C28.6826 49.5087 33.9582 50.2044 39.5555 50.2044C45.1537 50.2044 50.4285 49.5087 54.4107 48.2449C56.4715 47.5906 58.0756 46.8207 59.1967 45.9561V46.873C59.1967 47.7924 58.046 48.8418 56.0384 49.7502C55.5572 49.968 55.3436 50.5353 55.5614 51.0165C55.7218 51.3694 56.0697 51.5788 56.4335 51.5788C56.5652 51.5788 56.6995 51.5518 56.8278 51.4935C58.5104 50.732 59.5597 49.9266 60.1988 49.1609C61.4939 49.9908 62.198 50.8679 62.198 51.6742C62.198 53.1778 59.8637 54.8173 55.9532 56.0592ZM62.198 65.5695C62.198 67.0748 59.8637 68.7134 55.9532 69.9545C51.5868 71.3407 45.764 72.1039 39.5555 72.1039C33.3478 72.1039 27.5243 71.3407 23.1579 69.9545C19.2482 68.7134 16.9139 67.0748 16.9139 65.5695V55.1111C20.8911 58.3867 30.4428 60.1216 39.5555 60.1216C48.6691 60.1216 58.2208 58.3867 62.198 55.1111V65.5695ZM61.0566 47.4378C61.0946 47.2385 61.1106 47.0494 61.1106 46.873V42.7092C61.1106 40.2044 58.1093 38.0617 52.6581 36.6754C52.1465 36.5454 51.6256 36.8553 51.4956 37.3669C51.3656 37.8793 51.6746 38.3994 52.187 38.5302C57.3613 39.8456 59.1967 41.6033 59.1967 42.7092C59.1967 45.0402 51.7252 48.2913 39.5555 48.2913C27.3867 48.2913 19.9143 45.0402 19.9143 42.7092C19.9143 41.5636 21.6458 40.2677 24.5466 39.2436C27.8299 38.0828 32.3339 37.3466 37.2296 37.1693C37.7581 37.1499 38.171 36.7067 38.1515 36.1782C38.1321 35.6505 37.6906 35.2369 37.1604 35.2563C27.9329 35.5906 18.0013 38.0659 18.0013 42.7092V46.873C18.0013 47.0638 18.019 47.2521 18.0536 47.4386C16.0266 48.6864 15 50.109 15 51.6742V65.5695C15 71.057 27.6518 74.0178 39.5555 74.0178C51.4601 74.0178 64.1119 71.057 64.1119 65.5695V51.6742C64.1119 50.109 63.0844 48.6864 61.0566 47.4378Z" fill="#605954"/>
</g>
<mask id="mask1_429_1086" style="mask-type:luminance" maskUnits="userSpaceOnUse" x="47" y="18" width="38" height="42">
<path d="M47.7498 18H85.0001V59.0638H47.7498V18Z" fill="white"/>
</mask>
<g mask="url(#mask1_429_1086)">
<path d="M81.8825 52.8898L80.7006 53.8666C80.8238 52.428 80.6263 50.7345 80.0986 48.84C79.0138 44.9455 76.6187 40.4111 73.354 36.0734C73.2856 35.9822 73.2029 35.9071 73.1125 35.848C72.6668 35.2629 72.2041 34.6804 71.728 34.1038C67.9238 29.5027 63.6165 25.7619 59.5997 23.5711C57.5195 22.4364 55.6174 21.7796 53.9669 21.6057L55.1877 20.596C56.6499 19.3879 59.4924 19.7881 62.9867 21.6935C65.9036 23.2849 68.9969 25.7568 71.9264 28.8113C71.9289 28.8147 71.9314 28.818 71.934 28.8206C72.3814 29.2866 72.8247 29.767 73.262 30.2575C73.2653 30.2608 73.2687 30.2651 73.2721 30.2684C73.4848 30.5082 73.6967 30.7505 73.9061 30.9945C73.9179 31.0088 73.9306 31.0232 73.9424 31.0375C74.1459 31.2748 74.3477 31.5145 74.5469 31.7551C74.5503 31.7594 74.5528 31.7627 74.5562 31.7661C74.7622 32.0152 74.9648 32.2659 75.1666 32.5183C75.1733 32.5268 75.1801 32.5361 75.1877 32.5445C75.3911 32.8003 75.5921 33.0569 75.7896 33.3153C75.7905 33.3161 75.7913 33.317 75.7913 33.3178C76.1923 33.8404 76.5815 34.3672 76.9555 34.8957C76.9572 34.8982 76.9597 34.8999 76.9623 34.9033C79.4122 38.3554 81.2578 41.859 82.2717 45.0232C83.4865 48.8147 83.3447 51.6817 81.8825 52.8898ZM84.0944 44.4398C83.0222 41.0924 81.083 37.4056 78.5174 33.7897C78.5174 33.7889 78.5174 33.7889 78.5165 33.7881C78.5148 33.7855 78.5131 33.7838 78.5114 33.7813C78.3232 33.5162 78.1307 33.2503 77.9357 32.986C77.9264 32.9734 77.9179 32.9607 77.9078 32.9489C77.7162 32.6889 77.5212 32.4288 77.3228 32.1705C77.3118 32.1553 77.3 32.141 77.2881 32.1249C77.0914 31.8691 76.8913 31.6133 76.6887 31.3583C76.6769 31.344 76.6659 31.3296 76.6541 31.3153C76.449 31.0586 76.2413 30.802 76.0311 30.547C76.0277 30.5428 76.0252 30.5394 76.0218 30.5361C75.8166 30.2887 75.6106 30.043 75.403 29.8007C75.3861 29.7821 75.37 29.7627 75.354 29.7433C75.1446 29.4993 74.9336 29.2579 74.7208 29.0198C74.7065 29.0029 74.6921 28.9869 74.6769 28.97C74.4616 28.7277 74.2447 28.4888 74.026 28.2524C74.015 28.2406 74.0041 28.2287 73.9931 28.2161C73.7702 27.9746 73.5456 27.7366 73.3202 27.501C73.3185 27.4993 73.3168 27.4976 73.3152 27.4959C73.3143 27.4951 73.3143 27.4951 73.3143 27.4951C70.2455 24.2946 66.9884 21.6969 63.9027 20.0135C59.6241 17.68 56.0961 17.3626 53.9686 19.1211L49.6655 22.6787C47.2603 24.6661 47.1446 28.9649 49.3472 34.471C49.5439 34.9616 50.1003 35.2005 50.5908 35.0038C51.0821 34.8079 51.3202 34.2507 51.1243 33.7602C49.278 29.1464 49.1885 25.555 50.8846 24.1536C52.3468 22.9447 55.1885 23.3448 58.6837 25.2503C62.492 27.3279 66.6001 30.905 70.2531 35.3229C73.9053 39.7416 76.6457 44.4499 77.9686 48.5808C79.1826 52.3706 79.0416 55.2368 77.5811 56.4457L77.5794 56.4474C77.5794 56.4474 77.5794 56.4474 77.5786 56.4483C75.7668 57.9451 71.8335 56.9388 67.3152 53.8227C66.8804 53.523 66.2843 53.6319 65.9846 54.0675C65.6841 54.5023 65.7938 55.0983 66.2286 55.398C69.7263 57.81 72.8753 59.0477 75.3616 59.0468C76.7225 59.0468 77.885 58.6762 78.7959 57.924C78.7968 57.924 78.7976 57.9232 78.7985 57.9223L83.1016 54.3647C85.229 52.6061 85.5811 49.0814 84.0944 44.4398Z" fill="#605954"/>
</g>
<path d="M29.6635 43.1017C29.6635 43.6302 30.0915 44.0591 30.62 44.0591C37.2126 44.0591 41.5056 37.913 42.7804 35.8134C44.3245 36.2938 48.0687 37.6817 49.547 40.2077C50.1776 41.2849 50.311 42.428 49.9539 43.702C49.8112 44.2111 50.1084 44.7395 50.6174 44.8814C50.7036 44.9059 50.7905 44.9177 50.8758 44.9177C51.2945 44.9177 51.6787 44.6408 51.7968 44.2186C52.2941 42.4407 52.0923 40.764 51.1949 39.236C48.9053 35.3313 42.8066 33.821 42.5474 33.7585C42.121 33.6555 41.6795 33.8556 41.476 34.244C41.4347 34.3225 37.2565 42.1452 30.62 42.1452C30.0915 42.1452 29.6635 42.5732 29.6635 43.1017Z" fill="#605954"/>
</svg>
