<svg width="100" height="100" viewBox="0 0 100 100" fill="none" xmlns="http://www.w3.org/2000/svg">
<circle cx="50" cy="50" r="50" fill="#F1F0EF"/>
<path d="M61.1355 54.7328C59.7481 54.7328 58.3607 54.3086 57.1511 53.4615C56.6176 53.0886 56.4739 52.3312 56.8296 51.7711C57.184 51.2111 57.9039 51.0599 58.4374 51.4328C60.077 52.5811 62.194 52.5811 63.8323 51.4328C64.3658 51.0599 65.0857 51.2111 65.4414 51.7711C65.7971 52.3312 65.6521 53.0886 65.1198 53.4615C63.909 54.3086 62.5216 54.7328 61.1355 54.7328Z" fill="#605954"/>
<path d="M38.8631 54.7328C37.4757 54.7328 36.0895 54.3086 34.8787 53.4615C34.3464 53.0886 34.2015 52.3312 34.5572 51.7711C34.9128 51.2111 35.6327 51.0599 36.1662 51.4328C37.8046 52.5811 39.9216 52.5811 41.5611 51.4328C42.0934 51.0599 42.8133 51.2111 43.169 51.7711C43.5246 52.3312 43.3809 53.0886 42.8474 53.4615C41.6378 54.3086 40.2505 54.7328 38.8631 54.7328Z" fill="#605954"/>
<path d="M49.9997 73.4548C47.4491 73.4548 44.8996 72.6769 42.6742 71.1186C42.1407 70.7444 41.997 69.9883 42.3526 69.4282C42.7071 68.8682 43.4282 68.717 43.9605 69.0899C47.6293 71.6594 52.3689 71.6594 56.0377 69.0899C56.57 68.717 57.2911 68.8682 57.6456 69.4282C58.0013 69.9883 57.8575 70.7444 57.324 71.1186C55.0998 72.6757 52.5492 73.4548 49.9997 73.4548Z" fill="#605954"/>
<mask id="mask0_429_1120" style="mask-type:luminance" maskUnits="userSpaceOnUse" x="48" y="11" width="4" height="78">
<path d="M48.5358 11H51.3422V89H48.5358V11Z" fill="white"/>
</mask>
<g mask="url(#mask0_429_1120)">
<path d="M50.0001 88.9988C49.3594 88.9988 48.8393 88.4528 48.8393 87.78V12.2201C48.8393 11.5473 49.3594 11.0013 50.0001 11.0013C50.6396 11.0013 51.1597 11.5473 51.1597 12.2201V87.78C51.1597 88.4528 50.6396 88.9988 50.0001 88.9988Z" fill="#605954"/>
</g>
<path d="M38.8803 63.4063C38.5831 63.4063 38.2858 63.2871 38.0593 63.0487L36.4197 61.3263C35.9666 60.8496 35.9666 60.0781 36.4197 59.6027C36.8717 59.1259 37.6062 59.1259 38.0593 59.6027L39.7 61.3251C40.1532 61.8018 40.1532 62.5733 39.7 63.0487C39.4735 63.2871 39.1763 63.4063 38.8803 63.4063Z" fill="#605954"/>
<path d="M31.439 60.2549C31.143 60.2549 30.8457 60.1357 30.6192 59.8974C30.1661 59.4219 30.1661 58.6504 30.6192 58.1737L32.2599 56.4513C32.7131 55.9746 33.4476 55.9746 33.8995 56.4513C34.3526 56.9268 34.3526 57.6982 33.8995 58.1737L32.2599 59.8974C32.0334 60.1357 31.7362 60.2549 31.439 60.2549Z" fill="#605954"/>
<path d="M34.5791 68.2811C34.2831 68.2811 33.9858 68.1619 33.7593 67.9236L32.1185 66.1999C31.6654 65.7244 31.6654 64.953 32.1185 64.4762C32.5717 64.0008 33.3062 64.0008 33.7593 64.4762L35.4 66.1999C35.8532 66.6766 35.8532 67.4481 35.4 67.9236C35.1735 68.1619 34.8763 68.2811 34.5791 68.2811Z" fill="#605954"/>
<path d="M43.7198 62.1873C43.4226 62.1873 43.1254 62.0681 42.8988 61.8298C42.4457 61.3543 42.4457 60.5828 42.8988 60.1061L44.5396 58.3837C44.9927 57.9069 45.7272 57.9069 46.1803 58.3837C46.6334 58.8591 46.6334 59.6306 46.1803 60.1074L44.5396 61.8298C44.313 62.0681 44.0158 62.1873 43.7198 62.1873Z" fill="#605954"/>
<path d="M39.5598 68.2811C39.2626 68.2811 38.9653 68.1619 38.7388 67.9236C38.2857 67.4481 38.2857 66.6766 38.7388 66.1999L40.3795 64.4762C40.8327 64.0008 41.5672 64.0008 42.0203 64.4762C42.4734 64.953 42.4734 65.7244 42.0203 66.1999L40.3795 67.9236C40.153 68.1619 39.8558 68.2811 39.5598 68.2811Z" fill="#605954"/>
<path d="M43.7198 80.9722C43.4226 80.9722 43.1254 80.853 42.8988 80.616C42.4457 80.1392 42.4457 79.3677 42.8988 78.8923L44.5396 77.1686C44.9927 76.6931 45.7272 76.6931 46.1803 77.1686C46.6334 77.6441 46.6334 78.4155 46.1803 78.8923L44.5396 80.616C44.313 80.853 44.0158 80.9722 43.7198 80.9722Z" fill="#605954"/>
<path d="M39.2201 76.4548C38.9229 76.4548 38.6257 76.3356 38.3991 76.0972L36.7596 74.3735C36.3064 73.8981 36.3064 73.1266 36.7596 72.6511C37.2127 72.1744 37.9472 72.1744 38.3991 72.6511L40.0398 74.3748C40.493 74.8503 40.493 75.6218 40.0398 76.0972C39.8133 76.3356 39.5161 76.4548 39.2201 76.4548Z" fill="#605954"/>
<mask id="mask1_429_1120" style="mask-type:luminance" maskUnits="userSpaceOnUse" x="21" y="41" width="24" height="45">
<path d="M21 41.4071H44.1703V85.3693H21V41.4071Z" fill="white"/>
</mask>
<g mask="url(#mask1_429_1120)">
<path d="M42.7378 85.3425H28.6848C24.4472 85.3425 21 81.7208 21 77.2687V42.6875C21 42.0147 21.5189 41.4688 22.1596 41.4688C22.8003 41.4688 23.3192 42.0147 23.3192 42.6875V77.2687C23.3192 80.3765 25.7261 82.905 28.6848 82.905H42.7378C43.3785 82.905 43.8974 83.4509 43.8974 84.1237C43.8974 84.7965 43.3785 85.3425 42.7378 85.3425Z" fill="#605954"/>
</g>
<mask id="mask2_429_1120" style="mask-type:luminance" maskUnits="userSpaceOnUse" x="21" y="13" width="58" height="32">
<path d="M21 13.1926H79V44.0317H21V13.1926Z" fill="white"/>
</mask>
<g mask="url(#mask2_429_1120)">
<path d="M77.8391 43.9064H72.4479C66.8618 43.9064 61.8385 40.6449 59.3378 35.3944L58.9285 34.5345C57.3413 38.4317 54.2523 41.551 50.391 43.0055C48.805 43.604 47.1399 43.9064 45.4444 43.9064H22.1596C21.5189 43.9064 21 43.3618 21 42.6877C21 26.5607 33.4889 13.439 48.8392 13.439H51.1596C66.5098 13.439 79 26.5607 79 42.6877C79 43.3618 78.4798 43.9064 77.8391 43.9064ZM58.6812 30.0683C59.1161 30.0683 59.5192 30.3259 59.7178 30.7424L61.4134 34.3038C63.517 38.7239 67.7461 41.4689 72.4479 41.4689H76.6527C76.0437 27.2502 64.8422 15.8765 51.1596 15.8765H48.8392C35.1565 15.8765 23.9538 27.2502 23.346 41.4689H45.4444C46.872 41.4689 48.2727 41.2139 49.6078 40.7115C53.6591 39.1852 56.6994 35.4828 57.5435 31.0487C57.6398 30.5373 58.0356 30.149 58.5265 30.0798C58.5777 30.0721 58.6301 30.0683 58.6812 30.0683Z" fill="#605954"/>
</g>
<mask id="mask3_429_1120" style="mask-type:luminance" maskUnits="userSpaceOnUse" x="56" y="41" width="23" height="45">
<path d="M56.0198 41.4071H79.0001V85.3693H56.0198V41.4071Z" fill="white"/>
</mask>
<g mask="url(#mask3_429_1120)">
<path d="M71.3143 85.3425H57.2613C56.6206 85.3425 56.1017 84.7965 56.1017 84.1237C56.1017 83.4509 56.6206 82.905 57.2613 82.905H71.3143C74.273 82.905 76.6799 80.3765 76.6799 77.2687V42.6875C76.6799 42.0147 77.1988 41.4688 77.8395 41.4688C78.4802 41.4688 79.0003 42.0147 79.0003 42.6875V77.2687C79.0003 81.7208 75.552 85.3425 71.3143 85.3425Z" fill="#605954"/>
</g>
<path d="M50 86.5612C36.567 86.5612 25.6397 75.0811 25.6397 60.9688V42.6875C25.6397 42.0147 26.1586 41.4688 26.7993 41.4688C27.44 41.4688 27.9589 42.0147 27.9589 42.6875V60.9688C27.9589 73.7368 37.846 84.1237 50 84.1237C62.1527 84.1237 72.0399 73.7368 72.0399 60.9688V42.6875C72.0399 42.0147 72.5588 41.4688 73.1995 41.4688C73.8402 41.4688 74.3591 42.0147 74.3591 42.6875V60.9688C74.3591 75.0811 63.4317 86.5612 50 86.5612Z" fill="#605954"/>
</svg>
