<svg width="100" height="100" viewBox="0 0 100 100" fill="none" xmlns="http://www.w3.org/2000/svg">
<circle cx="50" cy="50" r="50" fill="#F1F0EF"/>
<mask id="mask0_429_1084" style="mask-type:luminance" maskUnits="userSpaceOnUse" x="25" y="67" width="44" height="24">
<path d="M25.7997 67.709H68.6436V90.0001H25.7997V67.709Z" fill="white"/>
</mask>
<g mask="url(#mask0_429_1084)">
<path d="M49.7008 89.9988C46.4852 89.9988 41.2001 87.6142 36.551 84.0651C33.265 81.5558 27.5217 76.3019 25.9877 69.3086C25.84 68.6345 26.2659 67.9674 26.9388 67.8197C27.6117 67.6719 28.2777 68.0978 28.4254 68.7719C29.7885 74.9861 35.0494 79.7749 38.0641 82.0764C42.7271 85.6371 47.4478 87.5 49.7008 87.5C53.0399 87.5 61.012 83.6299 66.409 77.328C66.8569 76.804 67.6452 76.744 68.168 77.1929C68.6909 77.6419 68.7509 78.4314 68.3019 78.9554C62.7294 85.464 54.0256 89.9988 49.7008 89.9988Z" fill="#605954"/>
</g>
<path d="M71.2278 73.2999C71.0651 73.2999 70.9 73.2676 70.7407 73.1995C70.1059 72.9294 69.8105 72.1965 70.0805 71.5605C70.8885 69.6549 71.2982 67.7378 71.2982 65.8634V58.6358C71.2982 46.7059 61.6099 37.0002 49.7008 37.0002C37.7918 37.0002 28.1034 46.7059 28.1034 58.6358V63.4488C28.1034 64.139 27.5448 64.6988 26.8557 64.6988C26.1666 64.6988 25.608 64.139 25.608 63.4488V58.6358C25.608 45.3267 36.4159 34.5002 49.7008 34.5002C62.9857 34.5002 73.7948 45.3267 73.7948 58.6358V65.8634C73.7948 68.076 73.3169 70.322 72.3763 72.5381C72.1743 73.0148 71.7137 73.2999 71.2278 73.2999Z" fill="#605954"/>
<mask id="mask1_429_1084" style="mask-type:luminance" maskUnits="userSpaceOnUse" x="22" y="30" width="9" height="31">
<path d="M22 30.479H30.2318V60.0266H22V30.479Z" fill="white"/>
</mask>
<g mask="url(#mask1_429_1084)">
<path d="M26.8569 59.9919C26.4471 59.9919 26.0455 59.79 25.8066 59.4195C23.3158 55.5471 22 51.1115 22 46.5905C22 40.8657 24.036 35.464 27.8864 30.9696C28.3354 30.4467 29.1237 30.3867 29.6466 30.8357C30.1694 31.2858 30.2295 32.0753 29.7805 32.5981C26.3225 36.6332 24.4954 41.4716 24.4954 46.5905C24.4954 50.6302 25.6738 54.5972 27.9049 58.0644C28.2777 58.645 28.1103 59.4183 27.5309 59.7923C27.322 59.9273 27.0877 59.9919 26.8569 59.9919Z" fill="#605954"/>
</g>
<mask id="mask2_429_1084" style="mask-type:luminance" maskUnits="userSpaceOnUse" x="34" y="21" width="44" height="40">
<path d="M34.073 21.0238H77.4017V60.0266H34.073V21.0238Z" fill="white"/>
</mask>
<g mask="url(#mask2_429_1084)">
<path d="M72.5447 59.9919C72.3139 59.9919 72.0796 59.9273 71.8707 59.7923C71.2913 59.4183 71.1239 58.645 71.4979 58.0644C73.7278 54.5972 74.9062 50.6302 74.9062 46.5905C74.9062 38.7904 70.578 31.6078 63.3296 27.3753C61.7391 26.4462 60.0297 25.6787 58.2465 25.0958C55.5099 24.2024 52.6347 23.75 49.7008 23.75C46.7668 23.75 43.8917 24.2024 41.1551 25.0958C39.3753 25.6787 37.6682 26.4428 36.08 27.3707C36.0685 27.3777 36.0569 27.3834 36.0454 27.3904C35.4648 27.7378 34.7112 27.5589 34.3487 26.9818C33.9828 26.3977 34.1583 25.6256 34.7423 25.2585C34.7631 25.2447 34.785 25.2331 34.8058 25.2205C34.8093 25.2193 34.8116 25.217 34.815 25.2158C36.5567 24.1967 38.43 23.3576 40.3806 22.7193C43.3688 21.744 46.5036 21.25 49.7008 21.25C52.8979 21.25 56.0339 21.744 59.0198 22.7193C60.9715 23.3576 62.8448 24.1978 64.5865 25.2158C72.6105 29.9007 77.4016 37.8913 77.4016 46.5905C77.4016 51.1115 76.0858 55.5471 73.595 59.4194C73.3561 59.7899 72.9556 59.9919 72.5447 59.9919ZM36.0696 27.3753L36.0685 27.3765C36.0685 27.3765 36.0696 27.3765 36.0696 27.3753Z" fill="#605954"/>
</g>
<mask id="mask3_429_1084" style="mask-type:luminance" maskUnits="userSpaceOnUse" x="38" y="10" width="23" height="16">
<path d="M38.2096 10H60.9612V25.1604H38.2096V10Z" fill="white"/>
</mask>
<g mask="url(#mask3_429_1084)">
<path d="M40.7696 25.1581C40.3367 25.1581 39.9155 24.9319 39.6858 24.5291C38.879 23.1187 38.4704 21.5951 38.4704 20C38.4704 14.4864 43.5085 10 49.7008 10C55.8931 10 60.9312 14.4864 60.9312 20C60.9312 21.5951 60.5226 23.1187 59.7158 24.5291C59.3741 25.1281 58.6112 25.3359 58.0133 24.9919C57.4155 24.6491 57.2077 23.8862 57.5505 23.2872C58.138 22.2588 58.4358 21.153 58.4358 20C58.4358 15.8645 54.5173 12.5 49.7008 12.5C44.8843 12.5 40.9669 15.8645 40.9669 20C40.9669 21.153 41.2636 22.2588 41.8511 23.2872C42.1939 23.8862 41.9861 24.6491 41.3882 24.9931C41.1932 25.105 40.9796 25.1581 40.7696 25.1581Z" fill="#605954"/>
</g>
<path d="M42.2135 60C41.9757 60 41.7345 59.9319 41.5221 59.7899C39.6685 58.5514 37.2735 58.5514 35.4199 59.7899C34.8462 60.1731 34.0717 60.0173 33.6897 59.4425C33.3065 58.8689 33.4623 58.0921 34.036 57.71C36.7299 55.9095 40.2121 55.9095 42.906 57.71C43.4796 58.0921 43.6343 58.8689 43.2523 59.4425C43.0122 59.8049 42.6163 60 42.2135 60Z" fill="#605954"/>
<path d="M64.6731 60C64.4354 60 64.1953 59.9319 63.9818 59.7899C62.1293 58.5514 59.7332 58.5514 57.8795 59.7899C57.3059 60.1731 56.5314 60.0173 56.1494 59.4425C55.7673 58.8689 55.922 58.0921 56.4956 57.71C59.1895 55.9095 62.6718 55.9095 65.3668 57.71C65.9393 58.0921 66.0951 58.8689 65.7131 59.4425C65.4719 59.8049 65.076 60 64.6731 60Z" fill="#605954"/>
<path d="M49.7009 75.0033C47.3209 75.0033 44.9421 74.3662 42.8195 73.0897C42.2286 72.7353 42.037 71.9666 42.3925 71.3745C42.7468 70.7836 43.5132 70.5908 44.1042 70.9463C47.5564 73.0216 51.8454 73.0216 55.2976 70.9463C55.8897 70.592 56.6549 70.7836 57.0104 71.3745C57.3648 71.9666 57.1732 72.7353 56.5822 73.0897C54.4596 74.3651 52.0797 75.0033 49.7009 75.0033Z" fill="#605954"/>
<path d="M73.4081 80C73.2038 80 72.9984 79.9492 72.8091 79.8465C70.8412 78.7661 68.49 78.7661 66.521 79.8465C66.0351 80.1131 65.4314 80.0254 65.0401 79.6341C64.6477 79.2405 64.5611 78.6369 64.8278 78.1498C65.9058 76.1773 65.9058 73.8227 64.8278 71.8502C64.5611 71.3631 64.6477 70.7583 65.0401 70.3659C65.4314 69.9734 66.0351 69.8869 66.521 70.1535C68.49 71.2327 70.8412 71.2327 72.8091 70.1535C73.2961 69.8869 73.8986 69.9734 74.2911 70.3659C74.6835 70.7583 74.7689 71.3631 74.5034 71.8502C73.4254 73.8227 73.4254 76.1773 74.5034 78.1498C74.7689 78.6369 74.6835 79.2405 74.2911 79.6341C74.051 79.8742 73.7313 80 73.4081 80ZM69.665 76.5351C70.2329 76.5351 70.7996 76.5882 71.3594 76.6966C71.1436 75.5748 71.1436 74.424 71.3594 73.3021C70.2398 73.518 69.0914 73.518 67.9718 73.3021C68.1865 74.424 68.1865 75.5748 67.9718 76.6966C68.5316 76.5882 69.0983 76.5351 69.665 76.5351Z" fill="#605954"/>
<path d="M35.975 33.7499C35.7707 33.7499 35.5641 33.6991 35.376 33.5963C33.4069 32.516 31.0569 32.516 29.0879 33.5963C28.602 33.863 27.9983 33.7764 27.6059 33.384C27.2146 32.9915 27.128 32.3867 27.3947 31.8997C28.4715 29.9271 28.4715 27.5726 27.3947 25.6C27.128 25.113 27.2146 24.5082 27.6059 24.1157C27.9983 23.7233 28.602 23.6367 29.0879 23.9034C31.0569 24.9825 33.4069 24.9825 35.376 23.9034C35.8619 23.6367 36.4655 23.7233 36.858 24.1157C37.2492 24.5082 37.3358 25.113 37.0703 25.6C35.9923 27.5726 35.9923 29.9271 37.0703 31.8997C37.3358 32.3867 37.2492 32.9915 36.858 33.384C36.6179 33.624 36.2982 33.7499 35.975 33.7499ZM32.2319 30.2849C32.7986 30.2849 33.3665 30.3392 33.9251 30.4465C33.7104 29.3258 33.7104 28.1751 33.9251 27.0532C32.8067 27.269 31.6571 27.269 30.5375 27.0532C30.7534 28.1751 30.7534 29.3258 30.5375 30.4465C31.0973 30.3392 31.6652 30.2849 32.2319 30.2849Z" fill="#605954"/>
<mask id="mask4_429_1084" style="mask-type:luminance" maskUnits="userSpaceOnUse" x="22" y="61" width="11" height="11">
<path d="M22 61.2085H32.3001V71.2547H22V61.2085Z" fill="white"/>
</mask>
<g mask="url(#mask4_429_1084)">
<path d="M30.9843 71.25C30.7789 71.25 30.5734 71.1992 30.3853 71.0965C28.4162 70.0161 26.0651 70.0161 24.0972 71.0965C23.6101 71.3631 23.0076 71.2765 22.6152 70.8841C22.2228 70.4905 22.1373 69.8869 22.4028 69.3998C23.4808 67.4273 23.4808 65.0727 22.4028 63.1002C22.1373 62.6131 22.2239 62.0083 22.6152 61.6159C23.0076 61.2234 23.6101 61.1369 24.0972 61.4035C26.0651 62.4827 28.4162 62.4827 30.3853 61.4035C30.8712 61.1369 31.4748 61.2234 31.8661 61.6159C32.2585 62.0083 32.3451 62.6131 32.0785 63.1002C31.0005 65.0727 31.0005 67.4273 32.0785 69.3998C32.3451 69.8869 32.2585 70.4905 31.8661 70.8841C31.626 71.1242 31.3075 71.25 30.9843 71.25ZM27.2412 67.7851C27.8079 67.7851 28.3747 67.8382 28.9344 67.9466C28.7198 66.8248 28.7198 65.674 28.9344 64.5533C27.8149 64.768 26.6664 64.768 25.5469 64.5533C25.7615 65.674 25.7615 66.8248 25.5469 67.9466C26.1066 67.8382 26.6734 67.7851 27.2412 67.7851Z" fill="#605954"/>
</g>
</svg>
