<svg width="250" height="250" viewBox="0 0 250 250" fill="none" xmlns="http://www.w3.org/2000/svg">
<circle cx="125" cy="125" r="125" fill="#F1F0EF"/>
<path d="M133.772 121.554C139.152 124.553 144.607 124.553 149.987 121.554C151.158 120.9 151.578 119.419 150.926 118.246C150.271 117.075 148.794 116.649 147.617 117.307C143.755 119.463 140.001 119.463 136.139 117.307C133.357 115.771 131.002 119.993 133.772 121.554Z" fill="#605954"/>
<path d="M134.67 142.727C128.426 146.207 122.357 146.207 116.113 142.727C113.335 141.192 110.973 145.41 113.746 146.975C121.476 151.283 129.307 151.283 137.04 146.975C138.21 146.32 138.63 144.84 137.978 143.666C137.324 142.496 135.846 142.07 134.67 142.727Z" fill="#605954"/>
<path d="M117.953 118.246C117.298 117.075 115.82 116.649 114.644 117.307C110.782 119.463 107.027 119.463 103.165 117.307C100.384 115.771 98.0256 119.993 100.795 121.554C106.176 124.553 111.631 124.553 117.011 121.554C118.182 120.9 118.605 119.419 117.953 118.246Z" fill="#605954"/>
<path d="M197.308 213.68C195.199 207.286 190.456 202.007 184.01 199.765L160.452 191.435C161.281 187.318 162.955 183.297 165.624 179.227C167.348 177.723 174.478 170.877 173.029 161.695C171.227 150.344 168.449 143.898 164.288 141.406C162.202 140.835 163.289 139.842 163.613 138.248C170.761 138.723 177.004 133.091 176.972 125.906C176.972 122.16 175.222 118.84 172.528 116.591C172.676 116.281 172.768 115.942 172.768 115.574V97.458C172.768 79.3387 161.921 63.6647 146.207 56.0827C148.301 24.865 101.714 24.413 103.78 56.0856C88.0649 63.6647 77.2177 79.3387 77.2177 97.458V116.788C68.4072 124.226 74.5928 138.99 86.1122 138.248C86.3382 139.682 87.5232 140.974 85.6979 141.403C81.5346 143.898 78.759 150.344 76.957 161.698C75.5083 170.877 82.6355 177.72 84.3594 179.224C87.0944 183.416 88.7371 187.353 89.5367 191.438L65.9678 199.768C60.182 201.831 55.5812 206.284 53.3503 211.977L52.6782 213.68C51.5656 216.604 55.9781 218.449 57.2065 215.462C58.8319 210.392 62.4766 206.11 67.596 204.348L90.122 196.39C90.261 201.738 88.966 207.498 86.2165 213.57C84.9446 216.421 89.2905 218.504 90.6493 215.572C97.0145 201.225 96.6436 189.037 88.2735 176.303C85.5936 172.288 87.2943 161.455 92.9033 146.656C93.8971 144.066 95.1776 140.96 96.0729 138.891C97.1101 137.214 99.0396 139.164 98.7499 140.488L95.7687 162.266C95.702 162.759 95.7861 163.257 96.0091 163.7C96.0874 163.857 98.0488 167.678 104.504 175.672C109.554 180.881 107.755 197.928 107.502 197.659L103.217 213.956C102.432 216.998 107.085 218.284 107.923 215.19L112.248 198.699C112.332 198.218 114.178 187.501 111.466 178.801V172.606C119.961 176.567 130.04 176.497 138.52 172.557C138.471 173.313 138.723 179.331 138.204 179.896C135.947 188.341 137.663 198.279 137.779 198.893L142.064 215.19C142.883 218.241 147.568 217.044 146.766 213.956C146.769 213.956 142.524 197.853 142.524 197.853C142.51 197.76 140.925 188.538 142.901 181.144C143.498 178.914 144.361 177.071 145.465 175.689C151.94 167.678 153.896 163.857 153.98 163.697C154.2 163.26 154.284 162.764 154.217 162.278L151.23 140.464C150.938 139.138 152.867 137.257 153.899 138.862C154.64 140.609 155.765 143.197 156.555 145.312C162.585 160.884 164.465 172.18 161.71 176.309C153.392 188.869 152.972 201.451 159.34 215.578C160.646 218.438 165.085 216.488 163.764 213.564C161.023 207.532 159.725 201.767 159.858 196.372L182.384 204.346C187.504 206.107 191.157 210.395 192.78 215.462C193.921 218.385 198.484 216.662 197.308 213.68ZM164.673 133.378C165.569 128.716 166.087 123.82 166.218 118.709C174.831 120.613 173.481 133.219 164.673 133.378ZM108.499 53.6345C109.281 31.4794 141.391 31.9719 141.441 54.0981C136.304 52.2641 130.779 51.2124 124.993 51.2124C119.207 51.2124 113.682 52.2641 108.543 54.0981C108.54 53.9358 108.499 53.7967 108.499 53.6345ZM82.0793 97.458C84.4173 42.5642 165.577 42.5787 167.907 97.4609C167.907 97.458 167.907 114.166 167.907 114.166C167.388 114.021 166.864 113.911 166.325 113.833L166.392 99.2919C166.302 98.2055 165.601 97.1683 164.459 96.951C129.469 103.745 111.422 84.9854 110.834 83.6788C110.307 83.0385 109.49 82.7198 108.667 82.8125C107.841 82.911 107.126 83.4238 106.767 84.1713C100.013 98.1128 90.6087 101.876 84.8519 103.925C84.1653 104.298 83.7712 105.057 83.7017 105.819C83.6119 107.566 83.7162 110.519 83.6959 113.83C83.1425 113.908 82.6066 114.019 82.0793 114.166V97.458ZM77.8754 125.906C77.8754 122.406 80.3815 119.477 83.7249 118.724C83.7162 125.848 83.9596 127.537 85.0489 133.352C81.0652 133.161 77.8754 129.907 77.8754 125.906ZM82.3516 168.092C81.749 166.392 81.4419 164.491 81.7635 162.457C83.6235 150.735 86.2252 146.83 88.1113 145.633C84.6868 154.794 82.7862 162.272 82.3516 168.092ZM97.0435 133.398C94.1346 133.343 91.9675 135.444 91.1128 138.138C90.5305 136.032 89.9974 133.644 89.6207 131.416C93.1872 130.84 96.9218 130.466 98.0401 130.759C102.444 131.923 104.652 134.189 104.988 137.886C105.584 143.101 103.171 152.323 105.274 156.547C106.549 159.099 105.897 161.217 105.098 162.588C103.733 161.342 102.441 159.94 101.204 158.436L103.574 141.119C104.116 137.278 101.018 133.387 97.0435 133.398ZM110.301 166.513C109.838 166.232 109.391 165.899 108.939 165.589C110.643 162.953 111.877 158.894 109.629 154.38C108.49 150.506 110.472 142.052 109.832 137.446C109.003 128.088 99.8393 123.988 88.9167 126.601C88.3054 123.255 88.7052 116.423 88.5401 107.72C94.2853 105.692 103.061 100.842 109.568 89.3139C115.557 94.8099 132.456 106.761 161.516 102.166L161.452 116.081C161.452 119.709 161.191 123.188 160.8 126.584C149.851 123.985 140.806 128.154 139.975 137.446C139.337 142.041 141.319 150.524 140.177 154.38C137.915 158.92 139.175 163.005 140.893 165.639C131.784 172.018 119.845 172.363 110.301 166.513ZM150.677 133.827C147.71 135.041 145.96 138.06 146.415 141.148L148.768 158.3C147.487 159.876 146.146 161.336 144.732 162.631C143.918 161.258 143.243 159.123 144.526 156.55C146.632 152.326 144.225 143.101 144.816 137.886C145.152 134.189 147.36 131.926 151.763 130.759C152.867 130.463 156.561 130.834 160.11 131.405C159.728 133.575 159.256 135.684 158.702 137.735C157.662 134.412 154.006 132.491 150.677 133.827ZM161.84 145.607C163.729 146.778 166.351 150.66 168.223 162.457C168.544 164.483 168.228 166.389 167.62 168.095C167.182 162.275 165.259 154.768 161.84 145.607Z" fill="#605954"/>
</svg>
