<svg width="250" height="250" viewBox="0 0 250 250" fill="none" xmlns="http://www.w3.org/2000/svg">
<circle cx="125" cy="125" r="125" fill="#F1F0EF"/>
<mask id="mask0_1172_2545" style="mask-type:luminance" maskUnits="userSpaceOnUse" x="50" y="57" width="150" height="135">
<path d="M50 57.5H200V191.499H50V57.5Z" fill="white"/>
</mask>
<g mask="url(#mask0_1172_2545)">
<path d="M98.3849 81.7472C97.9612 83.0044 96.6269 83.6683 95.4092 83.2318C89.9449 81.2794 85.064 81.6322 80.9011 84.2877C74.2216 88.5481 73.3566 96.8204 73.4327 101.373C73.5215 106.504 75.5991 112.479 79.6098 119.128C80.2897 120.26 79.9548 121.745 78.8564 122.448C78.4733 122.693 78.0446 122.811 77.6235 122.811C76.8422 122.811 76.0786 122.406 75.6346 121.671C71.1749 114.275 68.8613 107.474 68.7573 101.457C68.5924 91.9694 72.1237 84.2172 78.4378 80.1868C83.7804 76.7812 90.1783 76.2611 96.944 78.6787C98.1642 79.1152 98.8085 80.49 98.3849 81.7472ZM199.843 151.306C199.843 173.399 182.397 191.374 160.956 191.374C152.277 191.374 144.256 188.428 137.777 183.457C133.857 186.18 129.966 188.726 126.189 191.036C125.821 191.261 125.407 191.374 124.994 191.374C124.58 191.374 124.169 191.261 123.801 191.036C115.937 186.227 95.7491 173.086 78.1613 154.994C59.8606 136.17 50.4389 118.271 50.1547 101.797C49.9924 92.3092 52.2248 83.4827 56.611 76.2715C60.812 69.3635 66.8496 64.0943 74.0694 61.0337C82.0376 57.6568 90.9621 57.1471 99.8791 59.5595C108.745 61.9563 117.386 67.2516 124.994 74.9307C132.602 67.2516 141.242 61.9563 150.106 59.5595C159.025 57.1471 167.95 57.6568 175.915 61.0337C183.135 64.0917 189.173 69.3583 193.374 76.2663C197.763 83.4775 199.995 92.304 199.833 101.792C199.693 110.046 197.194 118.781 192.415 127.78C197.083 134.392 199.843 142.521 199.843 151.306ZM134.063 180.218C126.676 172.921 122.071 162.657 122.071 151.306C122.071 129.209 139.514 111.235 160.956 111.235C172.059 111.235 182.09 116.057 189.183 123.776C193.029 116.076 195.038 108.663 195.157 101.705C195.441 84.983 187.387 71.1042 174.137 65.49C159.091 59.1152 140.91 64.685 126.686 80.0248C126.244 80.5005 125.633 80.7723 124.994 80.7723C124.354 80.7723 123.746 80.5005 123.304 80.0248C109.078 64.685 90.8936 59.1152 75.8503 65.4926C62.5979 71.1095 54.5435 84.9882 54.8327 101.713C55.3578 132.312 92.677 166.123 124.994 186.157C127.964 184.311 131.001 182.322 134.063 180.218ZM195.165 151.306C195.165 131.868 179.82 116.055 160.956 116.055C142.094 116.055 126.749 131.868 126.749 151.306C126.749 170.741 142.094 186.554 160.956 186.554C179.82 186.554 195.165 170.741 195.165 151.306ZM186.963 147.435L175.111 158.572L178.346 174.761C178.531 175.686 178.173 176.64 177.43 177.197C177.021 177.503 176.539 177.657 176.055 177.657C175.657 177.657 175.258 177.552 174.898 177.341L160.956 169.168L147.013 177.341C146.217 177.809 145.225 177.751 144.484 177.197C143.741 176.64 143.381 175.686 143.566 174.761L146.803 158.572L134.951 147.435C134.271 146.797 134.017 145.809 134.301 144.907C134.585 144.008 135.354 143.363 136.267 143.258L152.209 141.426L158.825 126.368C159.205 125.506 160.037 124.954 160.956 124.954C161.874 124.954 162.709 125.506 163.087 126.368L169.705 141.426L185.644 143.258C186.557 143.363 187.326 144.008 187.61 144.907C187.894 145.809 187.641 146.797 186.963 147.435ZM179.995 147.458L167.863 146.065C167.044 145.968 166.331 145.438 165.991 144.664L160.956 133.206L155.92 144.664C155.58 145.438 154.87 145.971 154.048 146.065L141.919 147.458L150.938 155.934C151.547 156.507 151.818 157.367 151.651 158.201L149.19 170.519L159.799 164.301C160.159 164.089 160.557 163.985 160.956 163.985C161.357 163.985 161.755 164.089 162.113 164.301L172.722 170.519L170.261 158.201C170.093 157.367 170.365 156.507 170.976 155.934L179.995 147.458Z" fill="#605954"/>
</g>
</svg>
